<svg width="35" height="36" viewBox="0 0 35 36" fill="none" xmlns="http://www.w3.org/2000/svg">
<path d="M17.5 12.175C14.275 12.175 11.675 14.8 11.675 18C11.675 21.2 14.3 23.825 17.5 23.825C20.7 23.825 23.325 21.2 23.325 18C23.325 14.8 20.7 12.175 17.5 12.175ZM35 18C35 15.575 35 13.2 34.875 10.775C34.75 7.975 34.1 5.475 32.05 3.45C30 1.4 27.525 0.75 24.725 0.625C22.3 0.5 19.925 0.5 17.5 0.5C15.075 0.5 12.7 0.5 10.275 0.625C7.475 0.75 4.975 1.4 2.95 3.45C0.9 5.5 0.25 7.975 0.125 10.775C-1.21072e-07 13.2 0 15.575 0 18C0 20.425 -1.21072e-07 22.8 0.125 25.225C0.25 28.025 0.9 30.525 2.95 32.55C5 34.6 7.475 35.25 10.275 35.375C12.7 35.5 15.075 35.5 17.5 35.5C19.925 35.5 22.3 35.5 24.725 35.375C27.525 35.25 30.025 34.6 32.05 32.55C34.1 30.5 34.75 28.025 34.875 25.225C35.025 22.825 35 20.425 35 18ZM17.5 26.975C12.525 26.975 8.525 22.975 8.525 18C8.525 13.025 12.525 9.025 17.5 9.025C22.475 9.025 26.475 13.025 26.475 18C26.475 22.975 22.475 26.975 17.5 26.975ZM26.85 10.75C25.7 10.75 24.75 9.825 24.75 8.65C24.75 7.475 25.675 6.55 26.85 6.55C28.025 6.55 28.95 7.475 28.95 8.65C28.9563 8.92384 28.9063 9.19606 28.8031 9.44979C28.6999 9.70351 28.5457 9.93333 28.35 10.125C28.1583 10.3207 27.9285 10.4749 27.6748 10.5781C27.4211 10.6813 27.1488 10.7313 26.875 10.725L26.85 10.75Z" fill="#2DB753"/>
</svg>
