<svg width="250" height="250" viewBox="0 0 250 250" fill="none" xmlns="http://www.w3.org/2000/svg">
<g id="OHLOGO-31-DESKTOPDESIGN">
<path d="M250 125C250 194.036 194.036 250 125 250C55.9644 250 0 194.036 0 125C0 55.9644 55.9644 0 125 0C194.036 0 250 55.9644 250 125Z" fill="white"/>
<path d="M83.8021 55.3269C84.7797 56.0012 85.4579 57.1877 85.8366 58.8863C86.2154 60.5849 86.1563 62.1749 85.6594 63.6564C85.1625 65.1379 84.4066 66.5397 83.3916 67.8619C82.4423 69.1696 81.3252 70.343 80.0404 71.3823C78.7555 72.4216 77.4743 73.3229 76.1968 74.0863C75.1263 68.976 73.8843 63.8695 72.4707 58.7668C73.4563 57.9311 74.555 57.1388 75.7668 56.39C77.0443 55.6266 78.3399 55.0991 79.6536 54.8076C81.4271 54.4141 82.8099 54.5872 83.8021 55.3269Z" fill="#59856C"/>
<path d="M87.4238 163.667C88.1249 162.483 89.0995 161.752 90.3475 161.475C91.6613 161.184 92.869 161.499 93.9705 162.42C95.0721 163.341 96.075 164.592 96.9792 166.174C97.8689 167.691 98.6308 169.407 99.2648 171.323C99.9646 173.225 100.511 175.058 100.904 176.822C101.225 178.259 101.527 180.077 101.811 182.277C102.16 184.462 102.298 186.625 102.224 188.767C102.215 190.894 101.945 192.771 101.411 194.398C100.878 196.025 99.8884 196.998 98.4433 197.319C97.1952 197.596 95.9875 197.281 94.8203 196.375C93.7187 195.454 92.6684 194.144 91.6693 192.446C90.6703 190.748 89.7516 188.792 88.9133 186.578C88.1408 184.35 87.4995 182.093 86.9897 179.806C86.5381 177.781 86.2252 175.759 86.051 173.741C85.8621 171.658 85.8885 169.766 86.1301 168.067C86.3571 166.303 86.7884 164.836 87.4238 163.667Z" fill="#59856C"/>
<path fill-rule="evenodd" clip-rule="evenodd" d="M243.04 166.233C247.549 153.323 250 139.448 250 125C250 85.8965 232.045 50.9868 203.929 28.0657C204.979 29.9433 205.928 31.9572 206.777 34.1073C208.585 38.5055 209.999 42.9911 211.018 47.5642C212.155 52.6599 212.707 57.6109 212.676 62.4172C212.696 67.1435 212.041 71.4712 210.711 75.4C209.446 79.3143 207.463 82.6339 204.762 85.3588C202.126 88.069 198.706 89.8906 194.502 90.8234C190.496 91.7125 186.788 91.4724 183.381 90.1031C179.988 88.7991 176.935 86.6998 174.221 83.8053C171.559 80.8309 169.24 77.2318 167.264 73.008C165.854 69.8803 164.667 66.5726 163.703 63.0847C163.604 64.2645 163.307 65.399 162.811 66.4884C161.891 68.5438 160.153 70.0264 157.599 70.9361C157.663 74.0071 157.395 77.2889 156.795 80.7815C156.246 84.1943 155.245 87.4332 153.791 90.4982C152.403 93.5487 150.512 96.1966 148.117 98.442C145.737 100.753 142.774 102.302 139.227 103.089C136.599 103.672 134.118 103.674 131.783 103.095C129.448 102.516 127.23 101.534 125.128 100.149C123.027 98.7644 121.098 97.0671 119.34 95.0575C117.582 93.0479 116.006 90.9292 114.614 88.7015C113.272 86.3939 112.134 84.0752 111.201 81.7455C110.268 79.4158 109.569 77.2056 109.102 75.1151C108.447 72.1752 108.01 68.9811 107.793 65.5327C107.627 62.0044 107.738 58.4831 108.126 54.9688C108.5 51.3893 109.206 47.9074 110.243 44.5233C111.267 41.0738 112.673 37.9508 114.462 35.1541C116.302 32.2775 118.515 29.8326 121.099 27.8193C123.735 25.7262 126.859 24.2788 130.472 23.4771C132.771 22.967 135.007 22.9506 137.182 23.4279C139.342 23.84 141.312 24.6369 143.092 25.8188C144.858 26.9354 146.36 28.4189 147.6 30.2692C148.906 32.1049 149.806 34.1334 150.301 36.3546L150.498 37.2365C150.76 38.4125 151.022 39.897 151.284 41.69C151.597 43.4032 151.666 45.102 151.49 46.7865C151.314 48.471 150.832 50.0178 150.043 51.427C149.24 52.7708 147.885 53.654 145.981 54.0767C143.682 54.5869 141.824 54.4505 140.409 53.6676C138.993 52.8847 138.016 51.2846 137.477 48.8674C137.273 47.9528 137.102 47.0309 136.964 46.1017C136.826 45.1725 136.655 44.2506 136.451 43.336C136.145 41.9641 135.682 40.9698 135.062 40.3532C134.427 39.6713 133.387 39.4907 131.942 39.8113C130.3 40.1757 128.939 41.0263 127.858 42.3631C126.777 43.6999 125.934 45.3269 125.327 47.2441C124.72 49.1613 124.296 51.278 124.054 53.5942C123.812 55.9104 123.709 58.2301 123.745 60.5533C123.766 62.8112 123.903 64.9747 124.158 67.0436C124.412 69.1125 124.7 70.8656 125.02 72.3029C125.283 73.4788 125.654 74.8362 126.135 76.3749C126.601 77.8484 127.192 79.26 127.907 80.6098C128.672 81.8797 129.591 82.9098 130.664 83.7003C131.736 84.4908 132.962 84.7329 134.342 84.4269C136.706 83.9021 138.451 82.7608 139.576 81.0029C140.686 79.1797 141.249 77.0665 141.264 74.6633C140.316 74.7367 139.352 74.7448 138.374 74.6876C137.448 74.5504 136.532 74.3079 135.627 73.9602C134.773 73.5326 134.029 72.9778 133.395 72.2959C132.745 71.5486 132.297 70.6197 132.049 69.5091C131.598 67.4839 131.938 65.7629 133.07 64.3462C134.187 62.8642 135.6 61.6252 137.308 60.6291C139.082 59.6184 140.939 58.8291 142.881 58.2612C144.808 57.628 146.362 57.1801 147.545 56.9178C148.399 56.7283 149.661 56.5167 151.333 56.283C153.004 56.0492 154.679 55.9861 156.357 56.0936C158.087 56.1212 159.63 56.3958 160.987 56.9174C161.573 57.1424 162.058 57.4343 162.442 57.7933C161.627 53.6866 161.191 49.4414 161.135 45.0577C161.137 40.1208 161.767 35.5246 163.024 31.269C164.281 27.0135 166.249 23.3201 168.929 20.1887C171.609 17.0573 175.182 14.996 179.649 14.0049C180.386 13.8414 181.109 13.7165 181.819 13.6302C164.772 4.91559 145.46 0 125 0C84.8479 0 49.1175 18.9314 26.2477 48.3551C29.1356 48.2227 31.7915 48.7635 34.2154 49.9778C37.6812 51.6084 40.6833 54.0961 43.2215 57.441C45.8108 60.7059 47.9765 64.5447 49.7188 68.9574C51.5267 73.3556 52.9405 77.8412 53.9602 82.4143C55.0964 87.51 55.6488 92.461 55.6175 97.2673C55.6373 101.994 54.9823 106.321 53.6523 110.25C52.388 114.164 50.4052 117.484 47.7037 120.209C45.068 122.919 41.6481 124.741 37.4441 125.674C33.4372 126.563 29.73 126.323 26.3225 124.953C22.9296 123.649 19.8763 121.55 17.1628 118.655C14.5004 115.681 12.1813 112.082 10.2054 107.858C8.29524 103.62 6.7939 99.0507 5.70138 94.151C5.4047 92.8204 5.14849 91.4751 4.93276 90.1149C1.72138 101.187 0 112.892 0 125C0 147.197 5.78563 168.043 15.9311 186.111C15.7947 185.525 15.6563 184.939 15.5159 184.353C14.5837 180.172 13.7171 175.976 12.9162 171.766C12.676 170.38 12.3519 168.772 11.944 166.943C11.6019 165.099 11.453 163.349 11.4976 161.694C11.5932 159.959 12.0098 158.426 12.7475 157.097C13.5509 155.753 14.9707 154.855 17.007 154.404C19.8316 153.777 22.1339 154.054 23.9141 155.236C25.6797 156.353 27.1057 157.956 28.1922 160.046C29.2641 162.071 30.0768 164.325 30.6303 166.807L32.0943 173.373C32.677 175.986 33.1867 178.581 33.6234 181.158C34.0456 183.67 34.475 186.214 34.9117 188.791L45.1049 184.884C44.4569 181.668 43.8161 178.485 43.1825 175.335C42.549 172.184 41.9812 169.019 41.479 165.84C41.2097 164.323 40.9185 162.707 40.6054 160.994C40.2924 159.281 40.2055 157.655 40.3449 156.116C40.4842 154.576 40.9774 153.233 41.8245 152.085C42.7227 150.857 44.2556 150.003 46.4233 149.522C48.2625 149.114 49.857 149.308 51.2068 150.106C52.6222 150.889 53.8259 151.959 54.8178 153.316C55.8754 154.658 56.7249 156.149 57.3664 157.789C58.0079 159.43 58.4816 160.936 58.7875 162.308L59.0716 163.582C60.2806 169.004 61.3656 174.488 62.3264 180.034C63.2727 185.515 64.1534 191.01 64.9683 196.52C65.1211 197.514 65.354 198.868 65.6671 200.581C65.9656 202.229 66.2348 204.055 66.4747 206.058C66.7001 207.996 66.8671 209.982 66.9756 212.015C67.0842 214.048 66.9593 215.961 66.6009 217.754C66.2936 219.468 65.6909 220.939 64.7927 222.166C63.9748 223.445 62.7776 224.259 61.2011 224.609C59.8217 224.915 58.508 224.898 57.2603 224.558C56.0782 224.203 55.0239 223.648 54.0974 222.894C53.1563 222.074 52.3576 221.12 51.7013 220.032C51.0304 218.878 50.5493 217.648 50.2579 216.341C49.7772 214.186 49.3622 212.015 49.0129 209.83C48.649 207.58 48.3581 205.347 48.1401 203.133L38.604 206.278C38.7857 208.02 39.0147 210.129 39.2909 212.604C39.4575 213.823 39.5522 215.041 39.5752 216.256C61.924 237.186 91.9655 250 125 250C171.127 250 211.419 225.015 233.08 187.84C231.151 187.706 229.324 187.312 227.598 186.658C223.848 185.296 220.583 183.175 217.804 180.295C215.01 177.35 212.694 173.922 210.857 170.01C209.071 166.018 207.719 161.965 206.801 157.849C206.189 155.105 205.782 152.042 205.579 148.659C205.376 145.276 205.436 141.834 205.759 138.334C206.067 134.769 206.667 131.277 207.559 127.856C208.516 124.422 209.817 121.288 211.46 118.455C213.103 115.622 215.111 113.188 217.484 111.153C219.923 109.104 222.784 107.715 226.068 106.986C229.287 106.272 232.162 106.491 234.694 107.643C237.211 108.73 239.404 110.369 241.271 112.56C243.124 114.686 244.641 117.16 245.822 119.983C246.988 122.741 247.863 125.427 248.445 128.04C248.722 129.281 248.849 130.624 248.827 132.069C248.87 133.499 248.694 134.875 248.299 136.197C247.905 137.519 247.269 138.688 246.393 139.705C245.517 140.722 244.323 141.399 242.812 141.734C240.513 142.244 238.718 142.231 237.427 141.695C236.121 141.093 235.099 140.223 234.363 139.084C233.626 137.944 233.072 136.696 232.7 135.339C232.38 133.902 232.049 132.57 231.706 131.343C231.364 130.116 230.908 129.155 230.339 128.458C229.821 127.682 228.971 127.425 227.789 127.687C226.475 127.979 225.435 128.724 224.668 129.922C223.887 131.055 223.302 132.454 222.915 134.116C222.527 135.779 222.282 137.616 222.179 139.628C222.141 141.624 222.17 143.606 222.264 145.574C222.409 147.461 222.605 149.269 222.852 150.996C223.085 152.659 223.318 154.013 223.551 155.058C223.857 156.43 224.254 158.056 224.742 159.936C225.296 161.801 226.032 163.557 226.951 165.205C227.855 166.787 228.971 168.082 230.299 169.09C231.612 170.032 233.254 170.285 235.225 169.848C236.539 169.556 237.783 169.109 238.958 168.505C240.134 167.902 241.301 167.265 242.462 166.597C242.654 166.473 242.847 166.352 243.04 166.233ZM178.17 172.601C179.25 172.543 180.26 173.361 180.426 174.43L183.985 197.292C184.31 199.38 187.285 199.83 187.848 197.877L202.09 148.42C202.467 147.11 201.296 145.718 199.88 145.795L185.76 146.561C184.68 146.62 183.67 145.801 183.504 144.733L179.945 121.871C179.62 119.783 176.644 119.332 176.082 121.286L161.84 170.742C161.463 172.053 162.634 173.445 164.05 173.368L178.17 172.601ZM185.945 108.92C185.945 113.73 182.045 117.63 177.235 117.63C172.424 117.63 168.524 113.73 168.524 108.92C168.524 104.109 172.424 100.209 177.235 100.209C182.045 100.209 185.945 104.109 185.945 108.92ZM182.178 120.455C181.398 120.455 180.766 119.823 180.766 119.043C180.766 118.263 181.398 117.63 182.178 117.63C182.958 117.63 183.591 118.263 183.591 119.043C183.591 119.823 182.958 120.455 182.178 120.455ZM179.196 98.326C179.196 98.7594 179.548 99.1107 179.981 99.1107C180.414 99.1107 180.766 98.7594 180.766 98.326C180.766 97.8926 180.414 97.5412 179.981 97.5412C179.548 97.5412 179.196 97.8926 179.196 98.326ZM184.768 100.209C186.198 100.209 187.357 99.0499 187.357 97.6197C187.357 96.1895 186.198 95.0301 184.768 95.0301C183.338 95.0301 182.178 96.1895 182.178 97.6197C182.178 99.0499 183.338 100.209 184.768 100.209ZM55.0285 43.7041C55.0285 45.1343 53.8691 46.2937 52.4389 46.2937C51.0088 46.2937 49.8493 45.1343 49.8493 43.7041C49.8493 42.2739 51.0088 41.1144 52.4389 41.1144C53.8691 41.1144 55.0285 42.2739 55.0285 43.7041ZM11.7763 154.426C13.2065 154.426 14.3659 153.267 14.3659 151.837C14.3659 150.406 13.2065 149.247 11.7763 149.247C10.3461 149.247 9.18669 150.406 9.18669 151.837C9.18669 153.267 10.3461 154.426 11.7763 154.426ZM117.529 213.885C117.529 215.315 116.369 216.474 114.939 216.474C113.509 216.474 112.349 215.315 112.349 213.885C112.349 212.455 113.509 211.295 114.939 211.295C116.369 211.295 117.529 212.455 117.529 213.885ZM103.315 66.3206C104.616 62.261 104.764 57.9774 103.759 53.4697C103.074 50.3992 101.999 47.5867 100.533 45.0324C99.0531 42.4127 97.2259 40.2471 95.0519 38.5355C92.8633 36.7586 90.3498 35.5337 87.5112 34.8609C84.6726 34.1881 81.5784 34.2233 78.2283 34.9667C76.9146 35.2582 74.9767 35.9967 72.4146 37.1823C69.9036 38.2879 67.3451 39.6441 64.7391 41.2508C62.1842 42.7776 59.8627 44.424 57.7747 46.19C55.7525 47.9414 54.5658 49.5759 54.2149 51.0936C54.0175 51.7544 53.9624 52.5894 54.0495 53.5985C54.1367 54.6076 54.2384 55.682 54.3546 56.8218C54.522 57.8816 54.7222 58.9342 54.9553 59.9794L55.5016 62.4293C56.1425 65.3038 56.809 68.1384 57.5011 70.9329C58.2588 73.713 58.9509 76.5076 59.5773 79.3167C60.2619 82.3872 60.8736 85.4396 61.4123 88.4739C61.9364 91.4429 62.5408 94.4626 63.2254 97.5331C63.5459 98.9704 64.023 100.956 64.6568 103.489C65.2761 105.957 66.0851 108.348 67.0839 110.664C68.1483 112.964 69.4684 114.865 71.0441 116.367C72.6198 117.868 74.4914 118.379 76.6591 117.898C78.6297 117.46 79.9695 116.203 80.6783 114.126C81.3871 112.049 81.7275 109.711 81.6994 107.112C81.7371 104.498 81.5448 101.936 81.1226 99.4239C80.7516 96.8323 80.4387 94.8106 80.1839 93.3588C81.2643 92.6391 82.3119 91.9268 83.3266 91.2217C84.3267 90.4512 85.3742 89.7389 86.4692 89.0845C87.7018 90.5936 89.0912 92.6507 90.6372 95.2558C92.2488 97.8464 93.9189 100.39 95.6474 102.886C97.427 105.302 99.2579 107.33 101.14 108.969C103.088 110.593 105.08 111.18 107.116 110.728C109.547 110.189 111.065 108.96 111.672 107.043C112.359 105.177 112.469 103.198 112.003 101.108C111.566 99.1479 110.797 97.0903 109.696 94.9349C108.646 92.6996 107.406 90.5408 105.977 88.4583C104.598 86.2959 103.118 84.2934 101.535 82.4506C99.9521 80.6078 98.4603 79.0191 97.0597 77.6844C99.9294 74.1681 102.015 70.3801 103.315 66.3206ZM90.236 215.698C93.6435 217.067 97.3507 217.307 101.358 216.418C105.562 215.485 108.981 213.664 111.617 210.954C114.319 208.229 116.301 204.909 117.566 200.995C118.896 197.066 119.551 192.738 119.531 188.012C119.562 183.206 119.01 178.255 117.874 173.159C116.854 168.586 115.44 164.1 113.632 159.702C111.89 155.29 109.724 151.451 107.135 148.186C104.597 144.841 101.595 142.353 98.129 140.723C94.7143 139.012 90.8393 138.638 86.5039 139.6C82.0372 140.591 78.464 142.652 75.7843 145.784C73.1046 148.915 71.1362 152.608 69.879 156.864C68.6219 161.12 67.9923 165.716 67.9901 170.653C68.0536 175.575 68.5952 180.323 69.6149 184.896C70.7074 189.795 72.2087 194.364 74.1189 198.603C76.0947 202.827 78.4139 206.426 81.0763 209.4C83.7898 212.295 86.843 214.394 90.236 215.698ZM175.067 182.477C175.431 184.11 175.083 185.798 174.024 187.542C173.031 189.27 171.582 190.963 169.676 192.62C167.836 194.262 165.705 195.832 163.281 197.33C160.843 198.762 158.409 200.057 155.978 201.213C153.562 202.435 151.241 203.464 149.014 204.301C146.854 205.123 145.117 205.68 143.803 205.972C142.555 206.248 141.179 206.417 139.676 206.476C138.253 206.586 136.994 206.351 135.9 205.771C135.287 205.496 134.63 204.716 133.93 203.431C133.23 202.147 132.472 200.601 131.655 198.794C130.904 196.972 130.157 195.013 129.414 192.915C128.656 190.752 127.945 188.647 127.282 186.601C126.684 184.539 126.123 182.641 125.599 180.906C125.14 179.157 124.801 177.793 124.582 176.813C124.218 175.179 123.814 173.212 123.37 170.911C122.977 168.53 122.588 166.011 122.202 163.354C121.802 160.632 121.46 157.863 121.177 155.046C120.893 152.229 120.679 149.568 120.534 147.064C120.441 144.479 120.471 142.141 120.625 140.05C120.845 137.945 121.192 136.256 121.667 134.986C122.522 132.945 123.902 131.713 125.807 131.29C127.12 130.999 128.339 131.208 129.463 131.919C130.572 132.564 131.549 133.547 132.395 134.868C133.292 136.108 134.069 137.581 134.725 139.287C135.432 140.913 136.041 142.56 136.551 144.23C137.061 145.899 137.476 147.453 137.797 148.89L138.561 152.32C139.698 157.415 140.695 162.507 141.554 167.596C142.464 172.605 143.487 177.657 144.623 182.753L145.476 186.574C148.228 185.004 151.257 183.44 154.563 181.884C157.855 180.262 161.078 179.102 164.231 178.402C165.348 178.154 166.479 177.972 167.625 177.855C168.836 177.723 169.92 177.791 170.876 178.059C171.883 178.247 172.744 178.707 173.459 179.44C174.225 180.092 174.761 181.105 175.067 182.477Z" fill="#59856C"/>
<path d="M180.569 38.0716C181.27 36.8876 182.244 36.1572 183.492 35.8802C184.806 35.5887 186.014 35.9035 187.115 36.8246C188.217 37.7458 189.22 38.9973 190.124 40.5793C191.014 42.0959 191.776 43.8123 192.41 45.7285C193.109 47.63 193.656 49.4628 194.049 51.2267C194.37 52.6639 194.672 54.4824 194.955 56.682C195.305 58.867 195.442 61.0304 195.369 63.1722C195.36 65.2995 195.089 67.1765 194.556 68.8032C194.023 70.4299 193.033 71.4036 191.588 71.7243C190.34 72.0012 189.132 71.6864 187.965 70.7799C186.864 69.8587 185.813 68.5492 184.814 66.8511C183.815 65.1531 182.896 63.1972 182.058 60.9836C181.286 58.7553 180.644 56.498 180.135 54.2114C179.683 52.1862 179.37 50.1645 179.196 48.1463C179.007 46.0628 179.033 44.1715 179.275 42.4724C179.502 40.708 179.933 39.2411 180.569 38.0716Z" fill="#59856C"/>
<path d="M23.5103 72.9217C24.2114 71.7377 25.186 71.0073 26.434 70.7303C27.7478 70.4388 28.9554 70.7536 30.057 71.6748C31.1586 72.5959 32.1615 73.8474 33.0657 75.4294C33.9554 76.946 34.7173 78.6624 35.3513 80.5786C36.0511 82.4801 36.5976 84.3129 36.9909 86.0768C37.3114 87.514 37.6134 89.3325 37.8971 91.5321C38.2464 93.7171 38.3841 95.8805 38.3102 98.0223C38.302 100.15 38.0311 102.027 37.4976 103.653C36.9642 105.28 35.9749 106.254 34.5298 106.574C33.2817 106.851 32.0741 106.537 30.9068 105.63C29.8052 104.709 28.7549 103.399 27.7558 101.701C26.7568 100.003 25.8381 98.0473 24.9998 95.8337C24.2273 93.6054 23.586 91.3481 23.0762 89.0615C22.6246 87.0363 22.3117 85.0146 22.1375 82.9964C21.9486 80.9129 21.975 79.0216 22.2166 77.3225C22.4436 75.5581 22.8748 74.0912 23.5103 72.9217Z" fill="#59856C"/>
</g>
</svg>
